<svg width="512" height="512" viewBox="0 0 512 512" fill="none" xmlns="http://www.w3.org/2000/svg">
<path d="M494.346 158.899C396.99 158.899 317.796 238.111 317.796 335.468C317.796 407.357 263.766 466.754 194.204 475.49V403.314C242.015 371.695 273.649 317.498 273.649 256.011C273.649 178.127 337.018 114.762 414.901 114.762C424.656 114.762 432.555 106.862 432.555 97.1068C432.555 87.3566 424.656 79.4573 414.901 79.4573C393.145 79.4573 372.381 83.607 353.11 90.8342V17.6548C353.11 7.89933 345.211 0 335.461 0C238.106 0 158.901 79.2066 158.901 176.553C158.901 254.437 95.5366 317.802 17.6544 317.802C7.89916 317.802 0 325.702 0 335.457C0 345.207 7.89916 353.107 17.6544 353.107C114.999 353.107 194.204 273.9 194.204 176.543C194.204 104.654 248.234 45.2571 317.796 36.5204V108.692C269.985 140.316 238.34 194.502 238.34 255.989C238.34 333.873 174.982 397.238 97.0941 397.238C87.3441 397.238 79.445 405.138 79.445 414.888C79.445 424.643 87.3441 432.543 97.0941 432.543C118.855 432.543 139.619 428.393 158.885 421.166V494.345C158.885 504.101 166.789 512 176.539 512C273.884 512 353.099 432.804 353.099 335.447C353.099 257.563 416.463 194.198 494.346 194.198C504.101 194.198 512 186.298 512 176.543C512 166.793 504.09 158.899 494.346 158.899Z" fill="white"/>
</svg>
