<svg width="512" height="512" viewBox="0 0 512 512" fill="none" xmlns="http://www.w3.org/2000/svg">
<path d="M512 0H0V512H512V0Z" fill="white"/>
<path d="M512 0H0V512H512V0Z" fill="white"/>
<path d="M512 0H0V512H512V0Z" fill="#073B4C"/>
<path d="M446.661 178.309C368.779 178.309 305.429 241.669 305.429 319.552C305.429 377.061 262.208 424.571 206.56 431.563V373.824C244.811 348.528 270.112 305.179 270.112 255.989C270.112 193.691 320.805 143.003 383.109 143.003C390.912 143.003 397.232 136.683 397.232 128.88C397.232 121.077 390.912 114.757 383.109 114.757C365.701 114.757 349.093 118.08 333.68 123.861V65.3226C333.68 57.5199 327.36 51.2 319.557 51.2C241.68 51.2 178.32 114.56 178.32 192.432C178.32 254.736 127.632 305.419 65.328 305.419C57.5307 305.419 51.2107 311.739 51.2107 319.541C51.2107 327.344 57.5307 333.664 65.328 333.664C143.2 333.664 206.56 270.304 206.56 192.421C206.56 134.912 249.787 87.4026 305.429 80.4159V138.149C267.184 163.445 241.872 206.789 241.872 255.973C241.872 318.277 191.184 368.965 128.88 368.965C121.077 368.965 114.757 375.28 114.757 383.083C114.757 390.885 121.077 397.205 128.88 397.205C146.288 397.205 162.896 393.888 178.309 388.101V446.645C178.309 454.448 184.629 460.763 192.432 460.763C270.304 460.763 333.675 397.413 333.675 319.536C333.675 257.232 384.357 206.544 446.661 206.544C454.464 206.544 460.784 200.224 460.784 192.421C460.784 184.619 454.453 178.309 446.661 178.309Z" fill="white"/>
</svg>
