<?xml version="1.0" encoding="UTF-8"?>
<svg xmlns="http://www.w3.org/2000/svg" xmlns:xlink="http://www.w3.org/1999/xlink" width="375pt" height="374.999991pt" viewBox="0 0 375 374.999991" version="1.2">
<g id="surface1">
<path style=" stroke:none;fill-rule:nonzero;fill:rgb(100%,100%,100%);fill-opacity:1;" d="M 362.054688 116.371094 C 290.753906 116.371094 232.753906 174.382812 232.753906 245.683594 C 232.753906 298.332031 193.183594 341.832031 142.238281 348.230469 L 142.238281 295.371094 C 177.253906 272.214844 200.421875 232.523438 200.421875 187.492188 C 200.421875 130.453125 246.832031 84.046875 303.871094 84.046875 C 311.015625 84.046875 316.800781 78.261719 316.800781 71.117188 C 316.800781 63.976562 311.015625 58.191406 303.871094 58.191406 C 287.9375 58.191406 272.730469 61.230469 258.617188 66.523438 L 258.617188 12.929688 C 258.617188 5.785156 252.832031 0 245.691406 0 C 174.390625 0 116.382812 58.007812 116.382812 129.300781 C 116.382812 186.339844 69.976562 232.746094 12.9375 232.746094 C 5.792969 232.746094 0.0078125 238.53125 0.0078125 245.675781 C 0.0078125 252.816406 5.792969 258.601562 12.9375 258.601562 C 84.230469 258.601562 142.238281 200.59375 142.238281 129.292969 C 142.238281 76.644531 181.808594 33.144531 232.753906 26.746094 L 232.753906 79.601562 C 197.738281 102.761719 174.5625 142.445312 174.5625 187.476562 C 174.5625 244.515625 128.160156 290.921875 71.117188 290.921875 C 63.976562 290.921875 58.191406 296.707031 58.191406 303.847656 C 58.191406 310.992188 63.976562 316.777344 71.117188 316.777344 C 87.054688 316.777344 102.261719 313.738281 116.371094 308.445312 L 116.371094 362.039062 C 116.371094 369.183594 122.160156 374.96875 129.300781 374.96875 C 200.59375 374.96875 258.609375 316.96875 258.609375 245.667969 C 258.609375 188.628906 305.015625 142.222656 362.054688 142.222656 C 369.199219 142.222656 374.984375 136.4375 374.984375 129.292969 C 374.984375 122.152344 369.191406 116.371094 362.054688 116.371094 Z M 362.054688 116.371094 "/>
</g>
</svg>
